<?xml version="1.0" encoding="utf-8"?>
<!-- Generator: Adobe Illustrator 16.0.0, SVG Export Plug-In . SVG Version: 6.00 Build 0)  -->
<!DOCTYPE svg PUBLIC "-//W3C//DTD SVG 1.1//EN" "http://www.w3.org/Graphics/SVG/1.1/DTD/svg11.dtd">
<svg version="1.1" id="Capa_1" xmlns="http://www.w3.org/2000/svg" xmlns:xlink="http://www.w3.org/1999/xlink" x="0px" y="0px"
	 width="400px" height="450px" viewBox="0 0 400 450" enable-background="new 0 0 400 450" xml:space="preserve">
<g>
	<g>
		<path fill="#292D3C" d="M139.866,277.85v-65.995h-11.014v-9.026c3.103-0.363,6.055-1.536,8.857-3.517
			c2.802-1.987,4.82-4.389,6.055-7.215h9.027v85.753H139.866z"/>
		<path fill="#292D3C" d="M192.377,250.663v27.187h-12.926v-85.753h12.926v30.565l15.796-30.565h13.778l-17.689,34.979
			l20.749,50.774h-15.195l-13.571-34.815L192.377,250.663z"/>
		<path fill="#292D3C" d="M250.713,278.94c-5.705,0-10.544-2.006-14.537-6.018c-3.987-4.012-5.98-8.819-5.98-14.43v-46.77
			c0-5.698,2.006-10.544,6.018-14.537c4.013-3.986,8.846-5.98,14.5-5.98c5.697,0,10.53,2.006,14.492,6.018
			c3.969,4.012,5.949,8.846,5.949,14.5v9.778h-13.402v-10.055c0-2.05-0.727-3.805-2.188-5.266c-1.461-1.46-3.216-2.188-5.266-2.188
			s-3.793,0.728-5.229,2.188c-1.441,1.461-2.156,3.216-2.156,5.266v46.914c0,2.05,0.715,3.792,2.156,5.228
			c1.436,1.436,3.179,2.156,5.229,2.156s3.805-0.714,5.266-2.149c1.461-1.43,2.188-3.172,2.188-5.216v-16.844h-7.178v-12.994h20.58
			v29.951c0,5.704-2.006,10.531-6.018,14.499S256.316,278.94,250.713,278.94z"/>
	</g>
	<g>
		<path fill="#AD865E" d="M200,419.544c-76.646,0-128.75-10.932-130.931-11.396c-2.595-0.552-4.583-2.652-5.002-5.272L14.865,91.856
			c-0.282-1.818,0.219-3.667,1.385-5.084c1.172-1.423,2.89-2.27,4.727-2.338c0.928-0.031,93.545-3.278,179.023-3.278
			c85.478,0,178.089,3.247,179.017,3.278c1.837,0.068,3.561,0.915,4.727,2.338c1.166,1.417,1.674,3.266,1.386,5.084l-49.202,311.02
			c-0.413,2.62-2.4,4.721-5.002,5.272C328.75,408.612,276.646,419.544,200,419.544z M76.046,396.426
			c14.01,2.583,61.056,10.28,123.954,10.28s109.944-7.697,123.948-10.28l47.364-299.397C347.856,96.27,271.418,93.994,200,93.994
			c-71.424,0-147.856,2.275-171.319,3.034L76.046,396.426z"/>
	</g>
	<g>
		<path fill="#AD865E" d="M386.27,97.272c-0.125,0-0.244-0.007-0.369-0.013c-0.564-0.031-57.408-3.266-185.9-3.266
			c-128.581,0-185.336,3.234-185.894,3.266c-2.069,0.157-4.056-0.759-5.354-2.356c-1.304-1.599-1.762-3.73-1.222-5.718l12.844-47.71
			c0.708-2.632,3.002-4.531,5.723-4.732c0.84-0.063,85.484-6.287,173.902-6.287s173.056,6.225,173.902,6.287
			c2.714,0.201,5.008,2.101,5.723,4.732L392.47,89.18c0.539,1.993,0.081,4.125-1.217,5.724
			C390.024,96.407,388.194,97.272,386.27,97.272z M31.583,49.23l-9.365,34.79c20.523-0.89,77.385-2.864,177.782-2.864
			c100.396,0,157.259,1.975,177.782,2.864l-9.365-34.79c-18.674-1.279-92.142-5.937-168.417-5.937
			C123.718,43.294,50.25,47.951,31.583,49.23z"/>
	</g>
	<g>
		<path fill="#AD865E" d="M200,395.824c-49.202,0-131.884-8.344-132.718-8.432l0.652-6.388c0.828,0.088,83.19,8.4,132.066,8.4
			c48.882,0,131.238-8.313,132.06-8.4l0.651,6.388C331.884,387.48,249.202,395.824,200,395.824z"/>
	</g>
</g>
</svg>
