<?xml version="1.0" encoding="utf-8"?>
<!-- Generator: Adobe Illustrator 16.0.0, SVG Export Plug-In . SVG Version: 6.00 Build 0)  -->
<!DOCTYPE svg PUBLIC "-//W3C//DTD SVG 1.1//EN" "http://www.w3.org/Graphics/SVG/1.1/DTD/svg11.dtd">
<svg version="1.1" id="Capa_1" xmlns="http://www.w3.org/2000/svg" xmlns:xlink="http://www.w3.org/1999/xlink" x="0px" y="0px"
	 width="400px" height="450px" viewBox="0 0 400 450" enable-background="new 0 0 400 450" xml:space="preserve">
<g>
	<g>
		<path fill="#292D3C" d="M89.487,277.982v-61.471H79.234v-8.409c2.888-0.336,5.637-1.433,8.249-3.281
			c2.612-1.845,4.488-4.086,5.637-6.719h8.409v79.88H89.487z"/>
		<path fill="#292D3C" d="M151.397,193.069h9.816l-33.318,87.334h-9.819L151.397,193.069z"/>
		<path fill="#292D3C" d="M169.493,248.614l21.274-50.574h12.042v50.574h7.708v12.104h-7.708v17.201h-12.042v-17.201h-21.274
			V248.614z M190.767,248.614v-24.946l-9.941,24.946H190.767z"/>
		<path fill="#292D3C" d="M247.396,252.659v25.323h-12.037v-79.88h12.037v28.476l14.715-28.476h12.838l-16.479,32.583l19.322,47.297
			h-14.151L251,245.55L247.396,252.659z"/>
		<path fill="#292D3C" d="M301.731,279.002c-5.308,0-9.822-1.868-13.538-5.606c-3.717-3.737-5.57-8.217-5.57-13.441v-43.571
			c0-5.306,1.867-9.819,5.604-13.537c3.735-3.715,8.236-5.574,13.504-5.574c5.309,0,9.811,1.871,13.505,5.605
			c3.693,3.739,5.54,8.24,5.54,13.505v9.109h-12.485v-9.362c0-1.912-0.679-3.544-2.035-4.905c-1.361-1.358-2.998-2.04-4.905-2.04
			c-1.912,0-3.539,0.682-4.874,2.04c-1.339,1.361-2.008,2.994-2.008,4.905v43.696c0,1.911,0.669,3.538,2.008,4.874
			c1.335,1.339,2.962,2.008,4.874,2.008c1.907,0,3.544-0.669,4.905-2.002c1.356-1.332,2.035-2.952,2.035-4.861v-15.688h-6.688
			v-12.103h19.173v27.899c0,5.31-1.867,9.811-5.606,13.504C311.435,277.152,306.955,279.002,301.731,279.002z"/>
	</g>
	<g>
		<path fill="#AD865E" d="M199.998,419.398c-76.495,0-128.495-10.908-130.672-11.371c-2.592-0.554-4.577-2.646-4.991-5.265
			L15.229,92.353c-0.286-1.812,0.217-3.66,1.384-5.076c1.167-1.416,2.885-2.264,4.717-2.328c0.925-0.033,93.357-3.273,178.667-3.273
			c85.311,0,177.745,3.241,178.671,3.273c1.833,0.064,3.547,0.912,4.716,2.328c1.165,1.416,1.671,3.264,1.384,5.076l-49.105,310.41
			c-0.414,2.618-2.4,4.711-4.993,5.265C328.493,408.49,276.498,419.398,199.998,419.398z M76.289,396.325
			c13.983,2.578,60.938,10.261,123.709,10.261c62.776,0,109.729-7.683,123.709-10.261l47.271-298.813
			c-23.411-0.753-99.699-3.023-170.981-3.023c-71.281,0-147.564,2.268-170.979,3.023L76.289,396.325z"/>
	</g>
	<g>
		<path fill="#AD865E" d="M14.094,97.758c-1.921,0-3.749-0.863-4.969-2.363c-1.299-1.597-1.751-3.721-1.217-5.708l12.819-47.614
			c0.707-2.627,2.997-4.521,5.71-4.723c0.843-0.063,85.316-6.274,173.56-6.274c88.246,0,172.72,6.211,173.562,6.274
			c2.713,0.201,5.002,2.095,5.709,4.723l12.825,47.614c0.533,1.988,0.081,4.111-1.22,5.708c-1.294,1.597-3.257,2.497-5.344,2.352
			c-0.557-0.033-57.287-3.257-185.533-3.257c-128.243,0-184.972,3.225-185.53,3.257C14.342,97.755,14.217,97.758,14.094,97.758z
			 M31.913,49.809l-9.348,34.723c20.484-0.888,77.235-2.855,177.433-2.855c100.199,0,156.952,1.967,177.438,2.855l-9.354-34.723
			c-18.631-1.272-91.954-5.92-168.084-5.92C123.851,43.888,50.542,48.537,31.913,49.809z"/>
	</g>
	<g>
		<path fill="#AD865E" d="M199.998,395.729c-49.106,0-131.625-8.33-132.452-8.415l0.648-6.376
			c0.824,0.085,83.025,8.385,131.804,8.385c48.784,0,130.982-8.3,131.804-8.385l0.651,6.376
			C331.625,387.398,249.107,395.729,199.998,395.729z"/>
	</g>
</g>
</svg>
