<?xml version="1.0" encoding="utf-8"?>
<!-- Generator: Adobe Illustrator 16.0.0, SVG Export Plug-In . SVG Version: 6.00 Build 0)  -->
<!DOCTYPE svg PUBLIC "-//W3C//DTD SVG 1.1//EN" "http://www.w3.org/Graphics/SVG/1.1/DTD/svg11.dtd">
<svg version="1.1" id="Capa_1" xmlns="http://www.w3.org/2000/svg" xmlns:xlink="http://www.w3.org/1999/xlink" x="0px" y="0px"
	 width="400px" height="450px" viewBox="0 0 400 450" enable-background="new 0 0 400 450" xml:space="preserve">
<g>
	<path fill="#AD865E" d="M206.65,67.41c1.54-1.539,2.49-3.664,2.49-6.011c0-4.694-3.806-8.5-8.5-8.5
		c-17.168,0-33.324,6.701-45.492,18.87c-12.169,12.168-18.869,28.323-18.87,45.491c0,4.694,3.806,8.5,8.5,8.5
		c4.693-0.001,8.5-3.807,8.5-8.5c0-26.116,21.247-47.362,47.361-47.361C202.988,69.9,205.113,68.948,206.65,67.41z"/>
	<path fill="#AD865E" d="M200.64,14.732c-27.387-0.001-53.135,10.665-72.5,30.029c-19.364,19.366-30.03,45.113-30.029,72.5
		c0,17.713,4.505,34.542,13.394,50.041c2.488,8.75,16.77,58.983,31.929,112.208c0.032,0.124,0.068,0.248,0.105,0.368
		c18.06,63.41,37.331,130.94,39.362,137.542c2.992,9.723,8.96,14.652,17.739,14.652c4.973,0,9.044-1.581,12.184-4.72
		c2.401-2.404,4.26-5.719,5.557-9.935c3.739-12.157,65.938-230.922,71.396-250.116c8.887-15.499,13.393-32.327,13.394-50.04
		c0.001-27.387-10.666-53.134-30.03-72.499C253.775,25.397,228.028,14.731,200.64,14.732z M219.202,353.036
		c-9.066,31.743-15.936,55.691-17.07,59.382c-0.162,0.527-0.63,2.043-1.021,2.625c-0.098,0.015-0.254,0.029-0.472,0.029
		c-0.219,0-0.374-0.015-0.473-0.029c-0.391-0.581-0.857-2.096-1.02-2.625c-1.157-3.757-8.256-28.52-17.57-61.131
		c14.365-4.468,27.994-10.608,40.802-18.321c1.03-0.619,2.066-1.229,3.086-1.87C223.296,338.699,221.197,346.055,219.202,353.036z
		 M232.934,304.903c-2.279,1.837-4.599,3.606-6.952,5.315c-14.989,10.896-31.428,19.183-49.071,24.717
		c-4.493-15.75-9.317-32.67-14.125-49.549c25.13-1.949,49.35-9.795,70.715-22.661c4.885-2.939,9.619-6.141,14.182-9.595
		C242.893,269.949,237.85,287.656,232.934,304.903z M256.464,222.276c-5.935,6.453-12.416,12.298-19.329,17.507
		c-22.797,17.175-50.367,27.351-79.114,28.881c-11.524-40.466-22.286-78.301-27.378-96.21h23.247l0,28.423
		c0,5.904,2.298,11.453,6.473,15.626c4.174,4.175,9.724,6.473,15.626,6.473c5.903,0,11.454-2.298,15.627-6.471
		c4.174-4.175,6.473-9.725,6.473-15.627l0-28.423l49.705,0h22.842C267.59,183.168,262.517,201.003,256.464,222.276z M286.17,117.261
		c-0.001,13.629-3.045,26.172-9.288,38.193l-25.849,0.001H189.59c-2.348,0-4.471,0.951-6.01,2.489
		c-1.539,1.539-2.49,3.664-2.489,6.011v36.922c0,1.362-0.53,2.644-1.493,3.606c-0.964,0.964-2.244,1.494-3.607,1.494
		c-1.362,0-2.643-0.53-3.606-1.494c-0.964-0.964-1.494-2.244-1.494-3.606l0-36.922c0-4.694-3.805-8.5-8.5-8.501h-37.993
		c-6.243-12.022-9.288-24.564-9.288-38.193c0-22.845,8.896-44.324,25.051-60.479c10.705-10.705,23.748-18.219,37.976-22.073
		c7.245-1.962,14.795-2.979,22.503-2.979c22.846,0,44.324,8.897,60.479,25.052S286.17,94.417,286.17,117.261z"/>
</g>
</svg>
