<?xml version="1.0" encoding="utf-8"?>
<!-- Generator: Adobe Illustrator 16.0.0, SVG Export Plug-In . SVG Version: 6.00 Build 0)  -->
<!DOCTYPE svg PUBLIC "-//W3C//DTD SVG 1.1//EN" "http://www.w3.org/Graphics/SVG/1.1/DTD/svg11.dtd">
<svg version="1.1" id="Capa_1" xmlns="http://www.w3.org/2000/svg" xmlns:xlink="http://www.w3.org/1999/xlink" x="0px" y="0px"
	 width="400px" height="450px" viewBox="0 0 400 450" enable-background="new 0 0 400 450" xml:space="preserve">
<g>
	<g>
		<path fill="#292D3C" d="M87.397,278.034v-65.918H76.399V203.1c3.096-0.363,6.045-1.534,8.847-3.516
			c2.799-1.982,4.815-4.384,6.045-7.207h9.017v85.657H87.397z"/>
		<path fill="#292D3C" d="M144.903,186.979h10.526l-35.726,93.649h-10.528L144.903,186.979z"/>
		<path fill="#292D3C" d="M164.517,216.558c0-8.105,2.185-14.3,6.556-18.58c3.779-3.779,8.745-5.671,14.893-5.671
			c5.644,0,10.459,2.121,14.445,6.353c3.985,4.237,5.977,9.177,5.977,14.824c0,5.83-1.296,11.452-3.891,16.871
			c-1.413,3.006-4.716,8.176-9.906,15.508c-1.412,2.003-3.507,5.121-6.284,9.356l-2.323,3.482c-1.502,2.279-2.642,4.075-3.415,5.396
			c-0.367,0.678-0.548,1.087-0.548,1.231h25.344v12.635H164.31v-11.841c0-0.272,0.94-1.847,2.818-4.723
			c0.87-1.315,1.853-2.771,2.949-4.361l3.362-4.841c1.959-2.687,5.038-6.988,9.232-12.907c3.967-5.551,6.929-10.582,8.891-15.091
			c1.594-3.685,2.392-7.122,2.392-10.309c0-2.595-0.729-4.804-2.185-6.625c-1.594-1.914-3.644-2.867-6.149-2.867
			c-3.597,0-6.146,2.073-7.648,6.214c-0.5,1.368-0.751,3.006-0.751,4.918v3.281h-12.704V216.558z"/>
		<path fill="#292D3C" d="M245.932,250.88v27.154h-12.91v-85.657h12.91v30.533l15.779-30.533h13.763l-17.67,34.938l20.723,50.72
			h-15.179l-13.553-34.778L245.932,250.88z"/>
		<path fill="#292D3C" d="M304.201,279.126c-5.695,0-10.531-2.005-14.518-6.012c-3.985-4.008-5.977-8.81-5.977-14.413V211.98
			c0-5.692,2.003-10.531,6.011-14.516c4.007-3.983,8.836-5.978,14.483-5.978c5.691,0,10.519,2.007,14.48,6.012
			c3.962,4.007,5.941,8.834,5.941,14.482v9.769h-13.387v-10.042c0-2.05-0.73-3.803-2.186-5.259c-1.459-1.46-3.212-2.189-5.259-2.189
			c-2.053,0-3.792,0.729-5.227,2.189c-1.438,1.456-2.153,3.208-2.153,5.259v46.859c0,2.047,0.716,3.79,2.153,5.225
			c1.435,1.435,3.174,2.149,5.227,2.149c2.047,0,3.8-0.713,5.259-2.144c1.455-1.431,2.186-3.168,2.186-5.213v-16.821h-7.172v-12.98
			h20.559v29.918c0,5.694-2.005,10.519-6.012,14.483C314.604,277.144,309.802,279.126,304.201,279.126z"/>
	</g>
	<g>
		<path fill="#AD865E" d="M200.505,419.567c-76.559,0-128.604-10.916-130.78-11.381c-2.596-0.554-4.58-2.647-4.997-5.268
			L15.582,92.249c-0.285-1.813,0.219-3.663,1.384-5.078c1.167-1.418,2.886-2.267,4.721-2.333
			c0.926-0.031,93.437-3.274,178.818-3.274c85.381,0,177.892,3.243,178.817,3.274c1.835,0.065,3.554,0.915,4.722,2.333
			c1.165,1.415,1.67,3.266,1.384,5.078l-49.146,310.67c-0.417,2.62-2.402,4.714-4.997,5.268
			C329.109,408.651,277.067,419.567,200.505,419.567z M76.693,396.476c13.991,2.579,60.987,10.27,123.812,10.27
			c62.828,0,109.819-7.69,123.812-10.27l47.312-299.061c-23.431-0.758-99.783-3.028-171.123-3.028
			c-71.34,0-147.686,2.27-171.123,3.028L76.693,396.476z"/>
	</g>
	<g>
		<path fill="#AD865E" d="M386.568,97.659c-0.125,0-0.247-0.003-0.372-0.009c-0.562-0.034-57.341-3.262-185.691-3.262
			c-128.436,0-185.127,3.228-185.684,3.259c-2.038,0.166-4.045-0.755-5.348-2.352c-1.302-1.6-1.756-3.725-1.221-5.713l12.83-47.653
			c0.71-2.63,3.002-4.527,5.716-4.728c0.842-0.063,85.388-6.28,173.706-6.28s172.864,6.218,173.706,6.28
			c2.714,0.2,5.006,2.098,5.717,4.724l12.832,47.653c0.535,1.991,0.082,4.117-1.218,5.716
			C390.317,96.795,388.49,97.659,386.568,97.659z M32.278,49.671l-9.355,34.75c20.503-0.889,77.298-2.858,177.582-2.858
			c100.284,0,157.082,1.969,177.586,2.858l-9.358-34.75c-18.65-1.275-92.035-5.927-168.228-5.927
			C124.312,43.744,50.928,48.396,32.278,49.671z"/>
	</g>
	<g>
		<path fill="#AD865E" d="M200.505,395.878c-49.146,0-131.735-8.338-132.565-8.423l0.651-6.379
			c0.824,0.083,83.093,8.39,131.914,8.39c48.827,0,131.09-8.307,131.914-8.39l0.65,6.379
			C332.24,387.54,249.651,395.878,200.505,395.878z"/>
	</g>
</g>
</svg>
